<?xml version="1.0" encoding="UTF-8"?>
<svg version="1.1" xmlns="http://www.w3.org/2000/svg" width="500" height="122">
<path d="M0 0 C165 0 330 0 500 0 C500 40.26 500 80.52 500 122 C335 122 170 122 0 122 C0 81.74 0 41.48 0 0 Z " fill="#FDFEFE" transform="translate(0,0)"/>
<path d="M0 0 C1.33514648 -0.01160156 1.33514648 -0.01160156 2.69726562 -0.0234375 C16.97277284 0.01827326 29.13526001 5.09383017 39.56640625 15.02734375 C45.94194091 22.12652031 49.8260395 30.17260145 52.5625 39.25 C52.75585938 39.88164063 52.94921875 40.51328125 53.1484375 41.1640625 C55.92085416 55.13076528 52.31331281 69.56894014 44.5625 81.25 C36.95314117 91.82477072 25.80703357 98.42826005 13.3359375 101.86328125 C-4.62654229 104.36790871 -19.29189745 101.41655245 -34.1796875 91.03515625 C-41.46698931 85.42808724 -45.73276515 77.4782698 -49.4375 69.25 C-49.79328125 68.47011719 -50.1490625 67.69023438 -50.515625 66.88671875 C-54.61485612 55.16222297 -53.52575988 41.41285937 -48.4375 30.25 C-41.57331121 16.99177233 -32.11568595 8.35370664 -18.4375 2.25 C-12.19808695 0.29564417 -6.51300469 -0.056349 0 0 Z " fill="#5763FF" transform="translate(52.4375,7.75)"/>
<path d="M0 0 C0.9384375 -0.01675781 1.876875 -0.03351562 2.84375 -0.05078125 C5.9038917 0.36773813 7.12056363 1.43453624 9.5 3.3125 C12.10470331 2.63731546 12.10470331 2.63731546 14.5 1.3125 C18.90529834 -0.15593278 22.9123776 -0.54006699 27.5 0.3125 C31.19090531 2.60879614 34.53451014 5.38152028 36.5 9.3125 C36.80859375 11.8515625 36.80859375 11.8515625 36.9375 14.9375 C36.99808594 15.94039062 37.05867188 16.94328125 37.12109375 17.9765625 C35.62742532 25.99915895 28.05077293 32.15227504 22.5 37.75 C21.81421875 38.46865234 21.1284375 39.18730469 20.421875 39.92773438 C19.74640625 40.61029297 19.0709375 41.29285156 18.375 41.99609375 C17.77429687 42.61025146 17.17359375 43.22440918 16.5546875 43.85717773 C13.76231572 45.83499715 11.92549365 46.30248868 8.5 46.3125 C5.83105469 44.48583984 5.83105469 44.48583984 3.171875 41.7734375 C2.69679504 41.29556793 2.22171509 40.81769836 1.73223877 40.3253479 C0.73242531 39.31279232 -0.25892184 38.29181589 -1.2421875 37.26318359 C-2.74167469 35.69620006 -4.26601137 34.1573755 -5.796875 32.62109375 C-15.66847126 22.55609263 -15.66847126 22.55609263 -16 15 C-15.90486809 10.25925976 -14.10759957 7.57199946 -11.203125 3.94140625 C-7.72110685 0.61112742 -4.75610848 0.01959935 0 0 Z " fill="#5763FF" transform="translate(42.5,24.6875)"/>
<path d="M0 0 C22 0 22 0 30 5 C32.15019919 9.30039837 32.41332248 11.28812373 32 16 C30.63035715 19.0816964 29.70715882 20.57570471 26.8125 22.3125 C25.9153125 22.6528125 25.9153125 22.6528125 25 23 C25.928125 23.391875 26.85625 23.78375 27.8125 24.1875 C31.34369037 26.19543178 32.47644365 27.27575115 34 31 C34.56589297 36.18735224 34.04372591 39.71976044 31 44 C23 48 23 48 0 48 C0 32.16 0 16.32 0 0 Z " fill="#182A70" transform="translate(130,34)"/>
<path d="M0 0 C2.97 0 5.94 0 9 0 C10.84075696 4.58681675 12.67357735 9.17669663 14.49926758 13.76953125 C15.12081837 15.32995852 15.74449011 16.88954277 16.37036133 18.44824219 C17.27209927 20.69505462 18.16604487 22.94483649 19.05859375 25.1953125 C19.3377916 25.8861795 19.61698944 26.57704651 19.90464783 27.28884888 C21.43824537 31.18028624 22.47754944 34.84863609 23 39 C23.66 39 24.32 39 25 39 C25.20367187 37.83597656 25.40734375 36.67195313 25.6171875 35.47265625 C27.23993649 28.1702858 30.29631702 21.33638878 33.125 14.4375 C33.69465489 13.03346443 34.26367062 11.62916936 34.83203125 10.22460938 C36.21399758 6.81338274 37.60458201 3.40574976 39 0 C41.97 0 44.94 0 48 0 C48 15.84 48 31.68 48 48 C46.02 48 44.04 48 42 48 C41.67 35.79 41.34 23.58 41 11 C37.88765637 19.4347484 37.88765637 19.4347484 34.77832031 27.87060547 C32.28263623 34.62154261 29.72084383 41.33643411 27 48 C25.02 48 23.04 48 21 48 C16.38 36.12 11.76 24.24 7 12 C6.67 23.88 6.34 35.76 6 48 C4.02 48 2.04 48 0 48 C0 32.16 0 16.32 0 0 Z " fill="#182A70" transform="translate(285,34)"/>
<path d="M0 0 C4.9710149 2.53240382 8.49430567 5.98861134 11 11 C11.17603147 13.41249692 11.26744968 15.83150895 11.3125 18.25 C11.36857422 20.20679688 11.36857422 20.20679688 11.42578125 22.203125 C10.80677111 27.72310537 8.47101263 30.70410792 4.375 34.3125 C-0.05088176 37.45720546 -3.66093594 37.73231182 -9 37 C-13.63588544 35.26255782 -16.98807223 32.65849788 -19.5 28.375 C-21.90095502 22.69416893 -22.10510774 16.53989057 -20.26953125 10.66015625 C-18.31543335 6.37709269 -16.02238954 3.57845483 -12 1 C-7.92952653 -0.35682449 -4.25608283 -0.52472254 0 0 Z " fill="#182A70" transform="translate(230,46)"/>
<path d="M0 0 C5.39801596 2.74993266 8.83578286 6.32230058 11.25 11.875 C12.79897814 18.3290756 12.10182127 23.01100978 9.28125 28.9140625 C6.9835341 32.65485606 3.93249325 35.03375337 0 37 C-4.65048294 37.56735892 -8.09730577 37.4598631 -12.3125 35.3125 C-18.16781934 30.27420196 -20.62857136 25.83809597 -21.375 18.125 C-21.21160206 12.78392989 -19.18928598 8.25630494 -15.46875 4.421875 C-10.3476623 0.05388843 -6.5913337 -0.80029684 0 0 Z " fill="#17296F" transform="translate(191,46)"/>
<path d="M0 0 C4.19174577 3.70433347 6.32849553 6.71177293 7.0703125 12.21484375 C7.31482702 18.67817756 6.78159 24.17913654 2.6875 29.375 C-2.54258497 33.53772069 -6.64108227 34.93095148 -13.3125 34.375 C-18.67205917 32.41691471 -21.54041831 29.38607074 -24.3125 24.375 C-26.14985245 18.86294266 -26.50237325 12.37348059 -24.3359375 6.9140625 C-21.85101933 2.81318528 -19.19229253 -0.72392327 -14.46484375 -2.203125 C-9.3531326 -3.20505749 -4.6228867 -2.26783121 0 0 Z " fill="#17296F" transform="translate(450.3125,48.625)"/>
<path d="M0 0 C14 0 14 0 20 3 C24.46057176 7.82223974 25.16738843 11.34814429 25.25 17.8125 C25.27578125 19.01519531 25.3015625 20.21789062 25.328125 21.45703125 C24.86040883 26.50725226 23.297188 29.77108505 19.625 33.25 C12.61782471 37.92145019 9.21017774 37 0 37 C0 24.79 0 12.58 0 0 Z " fill="#FCFCFD" transform="translate(387,40)"/>
<path d="M0 0 C6.64220838 2.38020943 10.88297136 6.35011158 14 12.6484375 C16.23988845 19.66202485 16.01087221 28.86335372 12.8984375 35.609375 C8.67476058 42.71790295 6.1111736 44.25860287 -2.13671875 47.3515625 C-8.73671875 47.3515625 -15.33671875 47.3515625 -22.13671875 47.3515625 C-22.13671875 31.8415625 -22.13671875 16.3315625 -22.13671875 0.3515625 C-16.353892 -2.53985087 -6.22821628 -1.28752665 0 0 Z M-16.13671875 5.3515625 C-16.13671875 17.5615625 -16.13671875 29.7715625 -16.13671875 42.3515625 C-4.02382013 42.57610596 -4.02382013 42.57610596 5.453125 37.02734375 C9.71305975 31.96498362 9.27582542 26.03761104 9.18359375 19.74609375 C8.66504047 14.25069371 6.91711519 11.21868426 2.80078125 7.4765625 C-3.59667338 3.76191143 -7.37115766 5.3515625 -16.13671875 5.3515625 Z " fill="#182A70" transform="translate(403.13671875,34.6484375)"/>
<path d="M0 0 C2.0625 0.4375 2.0625 0.4375 4 1 C5.47981369 4.87976794 4.48289466 7.57353665 3.25 11.4375 C2.90453125 12.54996094 2.5590625 13.66242188 2.203125 14.80859375 C0.02179523 20.59478343 -3.06008005 24.24703819 -7.4765625 28.44921875 C-9.80958095 31.94530535 -9.80958095 31.94530535 -10 41 C-16.93 41 -23.86 41 -31 41 C-31 38.03 -31 35.06 -31 32 C-30.34 32 -29.68 32 -29 32 C-29.0928125 30.205625 -29.0928125 30.205625 -29.1875 28.375 C-29.13494134 24.11024052 -28.60335885 21.52219139 -26 18 C-19.8044469 12.99766454 -14.89702637 11.23577164 -7 12 C-6.57847656 11.21753906 -6.15695313 10.43507813 -5.72265625 9.62890625 C-5.17480469 8.61699219 -4.62695312 7.60507812 -4.0625 6.5625 C-3.24458984 5.04849609 -3.24458984 5.04849609 -2.41015625 3.50390625 C-1 1 -1 1 0 0 Z " fill="#D8DBFF" transform="translate(86,53)"/>
<path d="M0 0 C2.38671875 0.12890625 2.38671875 0.12890625 5 1 C6.58203125 3.21484375 6.58203125 3.21484375 7.8125 5.9375 C8.23144531 6.83339844 8.65039062 7.72929688 9.08203125 8.65234375 C10 11 10 11 10 13 C10.58007812 12.88140625 11.16015625 12.7628125 11.7578125 12.640625 C16.10061086 11.92399161 18.26659076 11.60508733 22.25 13.75 C23.1575 14.4925 24.065 15.235 25 16 C25.9075 16.515625 26.815 17.03125 27.75 17.5625 C30 19 30 19 32 22 C32.37890625 24.4453125 32.37890625 24.4453125 32.5625 27.125 C32.54484879 30.36920975 32.54484879 30.36920975 34 33 C34 35.64 34 38.28 34 41 C27.4 41 20.8 41 14 41 C14.020625 39.535625 14.04125 38.07125 14.0625 36.5625 C13.49923167 30.49456394 10.5817547 28.21657421 6.23046875 24.2734375 C0.21629975 18.14340885 -1.07554936 9.32553913 -1 1 C-0.67 0.67 -0.34 0.34 0 0 Z " fill="#5A66FF" transform="translate(17,53)"/>
<path d="M0 0 C1.98 0 3.96 0 6 0 C6.33 8.91 6.66 17.82 7 27 C11.31261343 22.41154146 11.31261343 22.41154146 15.58422852 17.78515625 C18.82407297 14.44251223 20.17917056 13.09057428 24.96484375 12.5625 C25.96644531 12.706875 26.96804688 12.85125 28 13 C25.00700184 16.5873524 22.0401155 19.99758934 18.5625 23.125 C17.716875 24.07375 16.87125 25.0225 16 26 C16.24690058 29.84994893 17.48633914 32.05031525 19.94140625 34.953125 C20.81635742 36.005 20.81635742 36.005 21.70898438 37.078125 C22.32064453 37.79484375 22.93230469 38.5115625 23.5625 39.25 C24.77401418 40.691131 25.98375368 42.13375647 27.19140625 43.578125 C27.72967041 44.21137695 28.26793457 44.84462891 28.82250977 45.49707031 C30 47 30 47 30 48 C23.01709359 48.75269322 23.01709359 48.75269322 20.41845703 46.82958984 C18.9979607 45.18234762 17.7711356 43.49564959 16.5625 41.6875 C16.13001953 41.09259766 15.69753906 40.49769531 15.25195312 39.88476562 C13.40372239 37.29608564 12.01000605 35.03001815 11 32 C8.90948181 33.05413634 8.90948181 33.05413634 7 35 C6.29875226 38.18596662 6.29875226 38.18596662 6.25 41.6875 C6.19328125 42.86699219 6.1365625 44.04648438 6.078125 45.26171875 C6.05234375 46.16535156 6.0265625 47.06898437 6 48 C4.02 48 2.04 48 0 48 C0 32.16 0 16.32 0 0 Z " fill="#182A70" transform="translate(249,34)"/>
<path d="M0 0 C1.98 0 3.96 0 6 0 C9.3 8.91 12.6 17.82 16 27 C17.32 22.71 18.64 18.42 20 14 C20.89490969 11.38827673 21.80651915 8.78207235 22.75 6.1875 C23.17796875 5.00542969 23.6059375 3.82335938 24.046875 2.60546875 C24.36140625 1.74566406 24.6759375 0.88585938 25 0 C27.31 0 29.62 0 32 0 C29.03799796 7.8509659 26.06719252 15.69846631 23.07853699 23.5393219 C21.73500367 27.06464471 20.40082142 30.59327909 19.07421875 34.125 C18.5712283 35.43785123 18.06743478 36.75039535 17.5625 38.0625 C16.94568359 39.68865234 16.94568359 39.68865234 16.31640625 41.34765625 C14.86993382 44.26206213 13.57928676 46.0148451 11 48 C8.640625 48.390625 8.640625 48.390625 6.25 48.25 C5.45078125 48.21390625 4.6515625 48.1778125 3.828125 48.140625 C3.22484375 48.09421875 2.6215625 48.0478125 2 48 C2.33 46.35 2.66 44.7 3 43 C3.94875 42.9175 4.8975 42.835 5.875 42.75 C9.05413203 42.36175904 9.05413203 42.36175904 10.19897461 40.19775391 C13.09667956 32.24739122 7.88792767 22.87323083 4.9375 15.625 C4.00473346 13.30644524 3.0761362 10.98620743 2.15234375 8.6640625 C1.73976318 7.64779785 1.32718262 6.6315332 0.90209961 5.58447266 C0 3 0 3 0 0 Z " fill="#16286F" transform="translate(341,47)"/>
<path d="M0 0 C3.98974456 2.148324 6.32466839 3.79236992 8 8 C8.84712175 13.95185545 8.0019063 18.82429948 5 24 C2.26410956 26.29223253 0.52273903 26.92376722 -3 27.4375 C-6.83096387 26.87881777 -8.34701351 25.80037463 -11 23 C-13.315871 18.25797842 -13.77090271 13.19198331 -13 8 C-9.85022146 2.02628208 -6.92131977 -0.81427291 0 0 Z " fill="#F5F6F9" transform="translate(189,51)"/>
<path d="M0 0 C3.37672835 1.41351419 4.76053748 2.64493488 6.8125 5.6875 C8.88562374 11.47042411 8.77110661 15.87440375 6.25 21.375 C4.67819839 24.5061286 3.27046298 25.72433184 0 27 C-3.82208189 27.48792535 -5.46918717 27.33778998 -8.75 25.25 C-12.39290789 21.60709211 -13.30320692 18.75102577 -13.375 13.625 C-13.28858133 8.64595521 -12.40761604 5.79705788 -9 2 C-5.4913604 -0.33909307 -4.12910567 -0.41291057 0 0 Z " fill="#F6F7F9" transform="translate(228,51)"/>
<path d="M0 0 C2.92937654 1.81310142 5.43647949 3.87295899 7 7 C7.14851844 8.93359586 7.22130833 10.87342097 7.25 12.8125 C7.27578125 13.85019531 7.3015625 14.88789062 7.328125 15.95703125 C6.86794235 20.22467748 5.18599519 22.81400481 2.1875 25.8125 C-0.8527265 27.46290867 -2.57949832 27.54728027 -6 27 C-9.42545988 24.92564959 -11.70592195 22.88223414 -13 19 C-14.00903614 9.01054217 -14.00903614 9.01054217 -11.953125 4.9140625 C-8.33381505 0.5496005 -5.5798635 -0.6438304 0 0 Z " fill="#F4F5FA" transform="translate(444,51)"/>
<path d="M0 0 C5.24788123 1.85219338 7.81912419 4.60290696 11 9 C11 9.66 11 10.32 11 11 C8.25 11.25 8.25 11.25 5 11 C2.75 9.0625 2.75 9.0625 1 7 C-1.88861709 5.55569145 -3.79647701 5.62311494 -7 6 C-11.41118132 9.68508525 -11.41118132 9.68508525 -13.203125 14.91796875 C-13.31679022 20.42126002 -12.66985757 24.15470293 -10 29 C-6.51195905 31.32536063 -5.09859246 31.33457898 -1 31 C1.83222025 30.05592658 2.72778828 29.46275992 4.25 26.875 C4.4975 26.25625 4.745 25.6375 5 25 C6.98 25.33 8.96 25.66 11 26 C9.56179187 31.03372844 7.09754485 32.98955889 3 36 C-0.72799895 37.24266632 -4.12782994 37.52902513 -8 37 C-13.36335304 34.21518208 -16.79619663 30.70855759 -19.25 25.1875 C-20.81365362 18.54197212 -20.55692692 13.77113885 -17.28125 7.828125 C-12.85270268 1.50934406 -7.60297865 -0.76740345 0 0 Z " fill="#182A70" transform="translate(483,46)"/>
<path d="M0 0 C0.99 0 1.98 0 3 0 C1.30822101 9.71280173 -0.4056664 16.84285644 -7.28125 24.140625 C-9.08179508 25.94247103 -9.08179508 25.94247103 -10.23828125 28.21875 C-12 30 -12 30 -15.57421875 30.390625 C-16.94585748 30.3641199 -18.31721938 30.3165309 -19.6875 30.25 C-20.7403418 30.22292969 -20.7403418 30.22292969 -21.81445312 30.1953125 C-23.54355436 30.14826213 -25.27195205 30.07651873 -27 30 C-26.91276622 28.22825181 -26.80458345 26.45752623 -26.6875 24.6875 C-26.62949219 23.70136719 -26.57148437 22.71523437 -26.51171875 21.69921875 C-25.93694764 18.66741082 -25.42093296 17.82964519 -23 16 C-18.40743186 13.07211541 -14.54902171 11.44509783 -9 12 C-10.44077046 15.36179774 -12.24750021 17.59156268 -15 20 C-15.66 20 -16.32 20 -17 20 C-17 20.66 -17 21.32 -17 22 C-9.239343 15.87420221 -4.12823888 8.94451758 0 0 Z " fill="#5A65FF" transform="translate(86,55)"/>
<path d="M0 0 C2.38671875 0.12890625 2.38671875 0.12890625 5 1 C6.58203125 3.21484375 6.58203125 3.21484375 7.8125 5.9375 C8.23144531 6.83339844 8.65039062 7.72929688 9.08203125 8.65234375 C10 11 10 11 10 13 C10.58007812 12.88140625 11.16015625 12.7628125 11.7578125 12.640625 C16.10061086 11.92399161 18.26659076 11.60508733 22.25 13.75 C23.1575 14.4925 24.065 15.235 25 16 C25.9075 16.515625 26.815 17.03125 27.75 17.5625 C30 19 30 19 32 22 C32.37890625 24.4453125 32.37890625 24.4453125 32.5625 27.125 C32.54484879 30.36920975 32.54484879 30.36920975 34 33 C34 35.64 34 38.28 34 41 C27.4 41 20.8 41 14 41 C14.020625 39.535625 14.04125 38.07125 14.0625 36.5625 C13.49923167 30.49456394 10.5817547 28.21657421 6.23046875 24.2734375 C0.21629975 18.14340885 -1.07554936 9.32553913 -1 1 C-0.67 0.67 -0.34 0.34 0 0 Z M0 2 C2.26907887 13.72357414 5.69136382 24.8293554 16 32 C20.81572726 32.88421548 25.16869501 32.68919192 30 32 C30.6321163 25.50066867 30.6321163 25.50066867 28.4375 19.625 C27.633125 19.08875 26.82875 18.5525 26 18 C25.20142578 17.44699219 25.20142578 17.44699219 24.38671875 16.8828125 C20.49791112 14.38224883 17.72770656 13.53876034 13 14 C14.31224548 17.93673644 15.91910327 20.22719294 19 23 C11.17815401 17.46646002 7.32673338 10.2967414 3 2 C2.01 2 1.02 2 0 2 Z " fill="#E9EBFF" transform="translate(17,53)"/>
<path d="M0 0 C3.526875 -0.12375 3.526875 -0.12375 7.125 -0.25 C7.85348145 -0.28641602 8.58196289 -0.32283203 9.33251953 -0.36035156 C14.38684642 -0.44534431 17.13672548 0.82953155 21 4 C22.42041821 6.84083641 22.31452272 8.85477278 22 12 C20.1329009 14.30275556 18.64352259 15.67823871 16 17 C13.28024285 17.07187519 10.59325368 17.0927862 7.875 17.0625 C5.27625 17.041875 2.6775 17.02125 0 17 C0 11.39 0 5.78 0 0 Z " fill="#F0F2F6" transform="translate(136,60)"/>
<path d="M0 0 C2.58445773 -0.1081866 5.16437352 -0.18737237 7.75 -0.25 C8.47960937 -0.28351562 9.20921875 -0.31703125 9.9609375 -0.3515625 C13.5082962 -0.41605993 15.56834751 -0.31269314 18.48046875 1.796875 C20.71972672 5.04351123 20.61788499 7.15538228 20 11 C17.09916857 14.12226895 15.50825726 14.94733085 11.23046875 15.390625 C9.88218655 15.36804742 8.53433071 15.31649563 7.1875 15.25 C4.815625 15.1675 2.44375 15.085 0 15 C0 10.05 0 5.1 0 0 Z " fill="#F8F9FB" transform="translate(136,40)"/>
<path d="M0 0 C0.9384375 -0.01675781 1.876875 -0.03351562 2.84375 -0.05078125 C5.9038917 0.36773813 7.12056363 1.43453624 9.5 3.3125 C12.10470331 2.63731546 12.10470331 2.63731546 14.5 1.3125 C18.90529834 -0.15593278 22.9123776 -0.54006699 27.5 0.3125 C31.19090531 2.60879614 34.53451014 5.38152028 36.5 9.3125 C36.80859375 11.8515625 36.80859375 11.8515625 36.9375 14.9375 C36.99808594 15.94039062 37.05867188 16.94328125 37.12109375 17.9765625 C35.62742532 25.99915895 28.05077293 32.15227504 22.5 37.75 C21.81421875 38.46865234 21.1284375 39.18730469 20.421875 39.92773438 C19.74640625 40.61029297 19.0709375 41.29285156 18.375 41.99609375 C17.77429687 42.61025146 17.17359375 43.22440918 16.5546875 43.85717773 C13.76231572 45.83499715 11.92549365 46.30248868 8.5 46.3125 C5.83105469 44.48583984 5.83105469 44.48583984 3.171875 41.7734375 C2.69679504 41.29556793 2.22171509 40.81769836 1.73223877 40.3253479 C0.73242531 39.31279232 -0.25892184 38.29181589 -1.2421875 37.26318359 C-2.74167469 35.69620006 -4.26601137 34.1573755 -5.796875 32.62109375 C-15.66847126 22.55609263 -15.66847126 22.55609263 -16 15 C-15.90486809 10.25925976 -14.10759957 7.57199946 -11.203125 3.94140625 C-7.72110685 0.61112742 -4.75610848 0.01959935 0 0 Z M-12.5 8.3125 C-13.70033249 10.71316498 -13.73537492 12.3834182 -13.8125 15.0625 C-13.84988281 15.90296875 -13.88726563 16.7434375 -13.92578125 17.609375 C-12.75092828 25.06807457 -5.6171592 30.63038133 -0.5625 35.75 C0.23607422 36.58982422 1.03464844 37.42964844 1.85742188 38.29492188 C2.63537109 39.08318359 3.41332031 39.87144531 4.21484375 40.68359375 C4.91730225 41.40474365 5.61976074 42.12589355 6.34350586 42.86889648 C8.40933752 44.54177036 8.40933752 44.54177036 10.96826172 44.31005859 C14.1527117 43.05531774 15.88594786 41.41224673 18.29296875 38.98046875 C19.6087793 37.65885742 19.6087793 37.65885742 20.95117188 36.31054688 C21.85416016 35.38306641 22.75714844 34.45558594 23.6875 33.5 C24.60208984 32.58412109 25.51667969 31.66824219 26.45898438 30.72460938 C32.91095921 24.82005643 32.91095921 24.82005643 35.6171875 16.91015625 C35.10956133 11.59645655 34.62184973 8.08104833 30.5 4.3125 C26.03998733 1.61552653 21.57653529 1.72547393 16.5 2.3125 C14.8170608 3.28486487 13.14556566 4.27814444 11.5 5.3125 C8.8125 4.5625 8.8125 4.5625 6.5 3.3125 C-0.82302177 -0.34901089 -7.55926621 2.48031882 -12.5 8.3125 Z " fill="#EDEEFF" transform="translate(42.5,24.6875)"/>
<path d="M0 0 C2.31 0 4.62 0 7 0 C7 1.98 7 3.96 7 6 C8.65 6 10.3 6 12 6 C12 8.31 12 10.62 12 13 C10.35 13 8.7 13 7 13 C7 14.65 7 16.3 7 18 C4.36 18 1.72 18 -1 18 C-1 16.35 -1 14.7 -1 13 C-2.32 13 -3.64 13 -5 13 C-5 10.69 -5 8.38 -5 6 C-3.35 6 -1.7 6 0 6 C0 4.02 0 2.04 0 0 Z " fill="#E8E9FF" transform="translate(50,37)"/>
<path d="M0 0 C0.886875 -0.01417969 1.77375 -0.02835938 2.6875 -0.04296875 C5 0.1875 5 0.1875 7 2.1875 C6.89834392 5.94877491 6.00920966 7.17739184 3.4375 10 C2.633125 10.721875 1.82875 11.44375 1 12.1875 C-2.3721049 10.74231219 -4.69880363 9.06399547 -7 6.1875 C-7.25 3.4375 -7.25 3.4375 -7 1.1875 C-4.52224905 -0.05137548 -2.76346293 0.02008331 0 0 Z " fill="#5964FF" transform="translate(441,58.8125)"/>
<path d="M0 0 C5.94 0 11.88 0 18 0 C18 1.98 18 3.96 18 6 C12.06 6 6.12 6 0 6 C0 4.02 0 2.04 0 0 Z " fill="#6F79FF" transform="translate(32,87)"/>
<path d="M0 0 C1.125 3.71875 1.125 3.71875 0 6.25 C-2 9 -2 9 -3.7265625 10.74609375 C-4.35304688 11.38675781 -4.97953125 12.02742188 -5.625 12.6875 C-6.54152344 13.55955078 -6.54152344 13.55955078 -7.4765625 14.44921875 C-9.80958095 17.94530535 -9.80958095 17.94530535 -10 27 C-16.93 27 -23.86 27 -31 27 C-31 26.67 -31 26.34 -31 26 C-24.73 26 -18.46 26 -12 26 C-12 24.02 -12 22.04 -12 20 C-17.61 20 -23.22 20 -29 20 C-29 19.67 -29 19.34 -29 19 C-27.94941406 19.04382813 -26.89882813 19.08765625 -25.81640625 19.1328125 C-17.49684164 19.26911402 -17.49684164 19.26911402 -10.07421875 15.98828125 C-5.69624222 11.18354399 -2.53949768 5.96229889 0 0 Z " fill="#F0F1FF" transform="translate(86,67)"/>
<path d="M0 0 C1.32 0 2.64 0 4 0 C4 1.98 4 3.96 4 6 C5.65 6 7.3 6 9 6 C9 6.99 9 7.98 9 9 C7.35 9 5.7 9 4 9 C4 10.65 4 12.3 4 14 C2.68 14 1.36 14 0 14 C0 12.35 0 10.7 0 9 C-1.65 9 -3.3 9 -5 9 C-5 7.68 -5 6.36 -5 5 C-3.35 5 -1.7 5 0 5 C0 3.35 0 1.7 0 0 Z " fill="#6C76FF" transform="translate(51,39)"/>
<path d="M0 0 C5.61 0 11.22 0 17 0 C17 1.65 17 3.3 17 5 C11.39 5 5.78 5 0 5 C0 3.35 0 1.7 0 0 Z " fill="#5D69FF" transform="translate(57,87)"/>
<path d="M0 0 C0.99 0.33 1.98 0.66 3 1 C-0.09602087 4.15394039 -3.20314207 7.29671173 -6.3125 10.4375 C-7.19357422 11.33533203 -8.07464844 12.23316406 -8.98242188 13.15820312 C-9.82998047 14.01220703 -10.67753906 14.86621094 -11.55078125 15.74609375 C-12.33106689 16.53685303 -13.11135254 17.3276123 -13.9152832 18.14233398 C-16 20 -16 20 -19 21 C-19.66 20.34 -20.32 19.68 -21 19 C-19.88588745 18.37484497 -19.88588745 18.37484497 -18.74926758 17.73706055 C-16.12546497 16.07927211 -14.18055053 14.41112859 -12.01171875 12.20703125 C-11.30595703 11.49482422 -10.60019531 10.78261719 -9.87304688 10.04882812 C-9.15181641 9.31083984 -8.43058594 8.57285156 -7.6875 7.8125 C-6.94693359 7.06291016 -6.20636719 6.31332031 -5.44335938 5.54101562 C-3.62428288 3.69846718 -1.81005611 1.85140338 0 0 Z " fill="#D8DBFF" transform="translate(73,50)"/>
<path d="M0 0 C2.5 0.125 2.5 0.125 3.5 1.125 C3.6875 4.0625 3.6875 4.0625 3.5 7.125 C2.84 7.785 2.18 8.445 1.5 9.125 C-2.03571429 8.58928571 -2.03571429 8.58928571 -3.5 7.125 C-3.625 4.125 -3.625 4.125 -3.5 1.125 C-2.5 0.125 -2.5 0.125 0 0 Z " fill="#5D68FF" transform="translate(98.5,10.875)"/>
<path d="M0 0 C0.98484375 0.01804687 1.9696875 0.03609375 2.984375 0.0546875 C4.10585938 0.08949219 4.10585938 0.08949219 5.25 0.125 C2.8538126 2.5211874 2.25734112 2.33224578 -1 2.4375 C-5.95927116 2.93262852 -8.46679012 4.2011638 -11.75 8.125 C-12.79514298 11.42704592 -13.36288014 14.68764264 -13.75 18.125 C-14.08 18.125 -14.41 18.125 -14.75 18.125 C-16.41820809 11.45216763 -16.41820809 11.45216763 -14.62109375 7.8828125 C-10.3752983 2.07277662 -7.35135604 -0.17503229 0 0 Z " fill="#DBDDFF" transform="translate(42.75,24.875)"/>
<path d="M0 0 C0.33 0 0.66 0 1 0 C1 13.2 1 26.4 1 40 C0.67 40 0.34 40 0 40 C-0.02505615 39.07662842 -0.0501123 38.15325684 -0.07592773 37.2019043 C-0.17109045 33.77453584 -0.27032214 30.34733539 -0.37231445 26.92016602 C-0.4156133 25.43713985 -0.45729199 23.95406546 -0.49731445 22.47094727 C-0.55513958 20.33855661 -0.61879832 18.20640758 -0.68359375 16.07421875 C-0.73858032 14.14968872 -0.73858032 14.14968872 -0.79467773 12.1862793 C-0.86561234 8.97888449 -0.86561234 8.97888449 -2 6 C-1.0625 2.8125 -1.0625 2.8125 0 0 Z " fill="#CACFDE" transform="translate(326,42)"/>
<path d="M0 0 C1.67542976 0.28604898 3.34385343 0.61781233 5 1 C2.93435899 2.04928917 0.87395726 3.0543928 -1.25390625 3.97265625 C-6.06854786 6.22571351 -6.06854786 6.22571351 -9.25 10.328125 C-9.97528254 12.54581583 -10.56570245 14.70870602 -11 17 C-11.33 17 -11.66 17 -12 17 C-12.35955056 9.80898876 -12.35955056 9.80898876 -11 6.75 C-8.47224883 4.53821773 -5.78283416 3.22983768 -2.7421875 1.83203125 C-1.01484031 1.12595495 -1.01484031 1.12595495 0 0 Z " fill="#DEE0FF" transform="translate(70,65)"/>
<path d="M0 0 C1.95082515 3.7455843 3.41591037 7.61472552 4.90234375 11.5625 C6.00714271 14.01586139 7.30833628 15.91795235 9 18 C8.01 18 7.02 18 6 18 C2.3178721 14.3178721 0.19681275 10.03067054 -1 5 C-0.6875 2 -0.6875 2 0 0 Z " fill="#E0E2FF" transform="translate(18,60)"/>
<path d="M0 0 C2.31 0 4.62 0 7 0 C7 1.98 7 3.96 7 6 C8.65 6 10.3 6 12 6 C12 8.31 12 10.62 12 13 C10.35 13 8.7 13 7 13 C7.99 12.34 8.98 11.68 10 11 C10 10.01 10 9.02 10 8 C8.35 8 6.7 8 5 8 C5.33 5.69 5.66 3.38 6 1 C4.02 1 2.04 1 0 1 C0 0.67 0 0.34 0 0 Z " fill="#CBCEFF" transform="translate(50,37)"/>
<path d="M0 0 C1.64826111 2.96687001 2.44271087 5.65626525 3 9 C2.01 9.495 2.01 9.495 1 10 C-0.83691257 6.21812119 -1.15837626 4.05431692 0 0 Z " fill="#D1D4FF" transform="translate(18,60)"/>
<path d="M0 0 C0.66 0.66 1.32 1.32 2 2 C1.54545455 7.45454545 1.54545455 7.45454545 -1 10 C-2.31223496 6.06329512 -1.24296256 3.87511856 0 0 Z " fill="#D2D5FF" transform="translate(88,58)"/>
</svg>
