<?xml version="1.0" encoding="UTF-8"?>
<svg version="1.1" xmlns="http://www.w3.org/2000/svg" width="106" height="102">
<path d="M0 0 C34.98 0 69.96 0 106 0 C106 33.66 106 67.32 106 102 C71.02 102 36.04 102 0 102 C0 68.34 0 34.68 0 0 Z " fill="#5A66FF" transform="translate(0,0)"/>
<path d="M0 0 C1.6829392 0.97236487 3.35443434 1.96564444 5 3 C7.43028072 2.33719617 9.2010972 1.7989028 11 0 C16.24340309 -0.54488516 20.65957665 -0.65802601 25.4375 1.6875 C26.7059375 2.8321875 26.7059375 2.8321875 28 4 C28.78375 4.680625 29.5675 5.36125 30.375 6.0625 C32.84775151 10.53247388 32.90926433 15.0124177 32 20 C29.14018143 26.23031903 24.8794325 30.51200033 20 35.25 C19.2884375 35.95640625 18.576875 36.6628125 17.84375 37.390625 C15.91718925 39.28843111 13.99682361 41.17622045 12 43 C11.36578125 43.5887793 10.7315625 44.17755859 10.078125 44.78417969 C8 46 8 46 5.56323242 45.96972656 C2.25970912 44.71993186 0.48160419 42.98319247 -2.01171875 40.484375 C-2.93404297 39.56269531 -3.85636719 38.64101563 -4.80664062 37.69140625 C-5.51590698 36.96655029 -5.51590698 36.96655029 -6.23950195 36.22705078 C-7.68126146 34.75636371 -9.14073329 33.30521469 -10.60351562 31.85546875 C-20.24008944 22.13098233 -20.24008944 22.13098233 -20.375 14.5625 C-20.253882 10.00543517 -19.06661546 7.47011749 -16 4 C-11.07140428 -0.45920565 -6.38462375 -0.95340858 0 0 Z " fill="#5965FF" transform="translate(47,17)"/>
<path d="M0 0 C0.33 0 0.66 0 1 0 C1.15855469 0.75023437 1.31710938 1.50046875 1.48046875 2.2734375 C4.73064751 16.53112777 11.06457516 27.20168078 23 36 C29.06191599 39.45215379 35.18096994 42.45022044 42 44 C42 44.33 42 44.66 42 45 C28.14 45 14.28 45 0 45 C0 30.15 0 15.3 0 0 Z " fill="#FBFCFF" transform="translate(0,57)"/>
<path d="M0 0 C0.33 0 0.66 0 1 0 C1 14.85 1 29.7 1 45 C-13.19 45 -27.38 45 -42 45 C-42 44.67 -42 44.34 -42 44 C-41.17757812 43.78085938 -40.35515625 43.56171875 -39.5078125 43.3359375 C-31.88876203 41.17163448 -25.48635114 38.5576662 -19 34 C-18.36449219 33.56042969 -17.72898437 33.12085938 -17.07421875 32.66796875 C-7.66119659 25.42557698 -2.56364452 13.6879189 -0.25 2.3125 C-0.1675 1.549375 -0.085 0.78625 0 0 Z " fill="#FBFCFF" transform="translate(105,57)"/>
<path d="M0 0 C14.19 0 28.38 0 43 0 C43 0.33 43 0.66 43 1 C42.33355469 1.14695313 41.66710938 1.29390625 40.98046875 1.4453125 C27.8326377 4.64492453 16.819543 10.92611116 9.25 22.3125 C6.62091309 26.66037493 4.56117394 31.03786162 2.82421875 35.80859375 C2 38 2 38 0 42 C0 28.14 0 14.28 0 0 Z " fill="#FCFCFF" transform="translate(0,0)"/>
<path d="M0 0 C14.19 0 28.38 0 43 0 C43 14.19 43 28.38 43 43 C41.55538653 40.11077306 40.58372793 37.83108365 39.6875 34.8125 C35.0225319 20.60767212 25.93813883 11.6938323 12.9375 4.6875 C8.79734924 2.71479013 4.49773999 1.79126907 0 1 C0 0.67 0 0.34 0 0 Z " fill="#FAFAFF" transform="translate(63,0)"/>
<path d="M0 0 C1.82421875 0.18359375 1.82421875 0.18359375 4 1 C5.45703125 3.22265625 5.45703125 3.22265625 6.8125 6.0625 C9.52064157 11.34096423 12.56047201 16.00671322 17 20 C17.66 20 18.32 20 19 20 C18.566875 19.59007813 18.13375 19.18015625 17.6875 18.7578125 C17.130625 18.21898438 16.57375 17.68015625 16 17.125 C15.443125 16.59132813 14.88625 16.05765625 14.3125 15.5078125 C13 14 13 14 13 12 C17.73805442 11.66943806 20.11325523 12.3091767 24 15 C24.9075 15.515625 25.815 16.03125 26.75 16.5625 C29 18 29 18 30 20 C30.06996014 21.70702735 30.08440154 23.41668003 30.0625 25.125 C30.05347656 26.03507812 30.04445313 26.94515625 30.03515625 27.8828125 C30.02355469 28.58148438 30.01195313 29.28015625 30 30 C23.67031405 30.99796508 18.28949096 31.53284212 12.796875 27.85546875 C5.53148779 20.96921895 2.16308412 12.644248 0 3 C0 2.01 0 1.02 0 0 Z " fill="#5A66FF" transform="translate(17,47)"/>
<path d="M0 0 C1.6829392 0.97236487 3.35443434 1.96564444 5 3 C7.43028072 2.33719617 9.2010972 1.7989028 11 0 C16.24340309 -0.54488516 20.65957665 -0.65802601 25.4375 1.6875 C26.7059375 2.8321875 26.7059375 2.8321875 28 4 C28.78375 4.680625 29.5675 5.36125 30.375 6.0625 C32.84775151 10.53247388 32.90926433 15.0124177 32 20 C29.14018143 26.23031903 24.8794325 30.51200033 20 35.25 C19.2884375 35.95640625 18.576875 36.6628125 17.84375 37.390625 C15.91718925 39.28843111 13.99682361 41.17622045 12 43 C11.36578125 43.5887793 10.7315625 44.17755859 10.078125 44.78417969 C8 46 8 46 5.56323242 45.96972656 C2.25970912 44.71993186 0.48160419 42.98319247 -2.01171875 40.484375 C-2.93404297 39.56269531 -3.85636719 38.64101563 -4.80664062 37.69140625 C-5.51590698 36.96655029 -5.51590698 36.96655029 -6.23950195 36.22705078 C-7.68126146 34.75636371 -9.14073329 33.30521469 -10.60351562 31.85546875 C-20.24008944 22.13098233 -20.24008944 22.13098233 -20.375 14.5625 C-20.253882 10.00543517 -19.06661546 7.47011749 -16 4 C-11.07140428 -0.45920565 -6.38462375 -0.95340858 0 0 Z M-17 8 C-18.20033249 10.40066498 -18.23537492 12.0709182 -18.3125 14.75 C-18.34988281 15.59046875 -18.38726563 16.4309375 -18.42578125 17.296875 C-17.25092828 24.75557457 -10.1171592 30.31788133 -5.0625 35.4375 C-4.26392578 36.27732422 -3.46535156 37.11714844 -2.64257812 37.98242188 C-1.86462891 38.77068359 -1.08667969 39.55894531 -0.28515625 40.37109375 C0.41730225 41.09224365 1.11976074 41.81339355 1.84350586 42.55639648 C3.90933851 44.22965567 3.90933851 44.22965567 6.46826172 43.99536133 C9.64280977 42.7472772 11.38442555 41.11725421 13.79296875 38.703125 C14.67017578 37.8265625 15.54738281 36.95 16.45117188 36.046875 C17.35416016 35.12390625 18.25714844 34.2009375 19.1875 33.25 C20.10208984 32.3425 21.01667969 31.435 21.95898438 30.5 C28.79185395 23.65404484 28.79185395 23.65404484 31.375 14.5625 C30.82897762 9.37528735 28.73484658 6.53074699 24.875 3.125 C20.59718379 1.45107192 16.53578048 1.40022738 12 2 C10.3170608 2.97236487 8.64556566 3.96564444 7 5 C4.3125 4.25 4.3125 4.25 2 3 C-5.32302177 -0.66151089 -12.05926621 2.16781882 -17 8 Z " fill="#E7E9FF" transform="translate(47,17)"/>
<path d="M0 0 C2.475 0.495 2.475 0.495 5 1 C6.64341859 5.05653956 5.34873207 8.63436687 4.125 12.625 C3.90811523 13.33994629 3.69123047 14.05489258 3.46777344 14.79150391 C1.50619336 20.63532288 -1.3978151 24.35772885 -6.109375 28.3984375 C-8.93135764 31.82162976 -8.93135764 31.82162976 -9 41 C-15.93 41 -22.86 41 -30 41 C-30 39.02 -30 37.04 -30 35 C-29.67 36.32 -29.34 37.64 -29 39 C-23.06 39 -17.12 39 -11 39 C-11 37.35 -11 35.7 -11 34 C-15.95 34 -20.9 34 -26 34 C-26 33.67 -26 33.34 -26 33 C-24.60587891 33.0309375 -24.60587891 33.0309375 -23.18359375 33.0625 C-16.01931268 33.11832139 -16.01931268 33.11832139 -9.65234375 30.328125 C-7.91421064 28.29584628 -6.45482458 26.24186083 -5 24 C-4.00613281 22.90365234 -4.00613281 22.90365234 -2.9921875 21.78515625 C-0.37415971 18.12505073 0.60117072 14.49741613 1.75 10.1875 C2.08064453 9.00510742 2.08064453 9.00510742 2.41796875 7.79882812 C2.95602599 5.86884021 3.47950317 3.93479766 4 2 C3.01 2 2.02 2 1 2 C0.690625 3.2065625 0.690625 3.2065625 0.375 4.4375 C-2.55292445 12.02348608 -7.63540718 18.89848359 -14 24 C-14.66 24 -15.32 24 -16 24 C-15 21 -15 21 -11.9375 18.5 C-10.968125 17.675 -9.99875 16.85 -9 16 C-9 15.01 -9 14.02 -9 13 C-8.01 12.67 -7.02 12.34 -6 12 C-4.30718907 9.22286692 -4.30718907 9.22286692 -2.8125 5.9375 C-2.28269531 4.83277344 -1.75289062 3.72804687 -1.20703125 2.58984375 C-0.80871094 1.73519531 -0.41039063 0.88054688 0 0 Z " fill="#E1E3FF" transform="translate(85,45)"/>
<path d="M0 0 C1.98 0 3.96 0 6 0 C6 1.65 6 3.3 6 5 C7.98 5 9.96 5 12 5 C12 7.31 12 9.62 12 12 C10.35 12 8.7 12 7 12 C7 13.65 7 15.3 7 17 C4.36 17 1.72 17 -1 17 C-1 15.35 -1 13.7 -1 12 C-2.32 12 -3.64 12 -5 12 C-5 9.69 -5 7.38 -5 5 C-3.35 5 -1.7 5 0 5 C0 3.35 0 1.7 0 0 Z " fill="#717BFF" transform="translate(50,30)"/>
<path d="M0 0 C-0.33 0.66 -0.66 1.32 -1 2 C-2.64872971 2.43741809 -4.29785627 2.87341001 -5.94921875 3.30078125 C-10.02745177 4.69126451 -15.02460396 7.04920792 -17 11 C-17.22467831 12.53668865 -17.40796805 14.07968054 -17.5625 15.625 C-17.706875 17.06875 -17.85125 18.5125 -18 20 C-13.38 20 -8.76 20 -4 20 C-3.67 22.31 -3.34 24.62 -3 27 C-8.94 27 -14.88 27 -21 27 C-21.33 24.69 -21.66 22.38 -22 20 C-21.34 20 -20.68 20 -20 20 C-20.061875 18.989375 -20.12375 17.97875 -20.1875 16.9375 C-19.98476988 12.6801675 -19.59668655 9.40523565 -17 6 C-11.67494994 1.66743239 -6.89541757 -0.89940229 0 0 Z " fill="#DBDEFF" transform="translate(77,57)"/>
<path d="M0 0 C5.94 0 11.88 0 18 0 C18 1.98 18 3.96 18 6 C15.18743719 6.02684312 12.37512759 6.04676188 9.5625 6.0625 C8.76005859 6.07087891 7.95761719 6.07925781 7.13085938 6.08789062 C5.08704779 6.0965143 3.04316098 6.0522815 1 6 C0.67 5.67 0.34 5.34 0 5 C0 3.35 0 1.7 0 0 Z " fill="#717BFF" transform="translate(32,79)"/>
<path d="M0 0 C1.98 0 3.96 0 6 0 C6 1.65 6 3.3 6 5 C7.98 5 9.96 5 12 5 C12 7.31 12 9.62 12 12 C10.35 12 8.7 12 7 12 C7 13.65 7 15.3 7 17 C4.36 17 1.72 17 -1 17 C-1 15.35 -1 13.7 -1 12 C-2.32 12 -3.64 12 -5 12 C-5 9.69 -5 7.38 -5 5 C-3.35 5 -1.7 5 0 5 C0 3.35 0 1.7 0 0 Z M1 1 C1 2.65 1 4.3 1 6 C-0.65 6 -2.3 6 -4 6 C-4 7.32 -4 8.64 -4 10 C-2.35 10 -0.7 10 1 10 C1 11.65 1 13.3 1 15 C2.32 15 3.64 15 5 15 C5 13.35 5 11.7 5 10 C6.65 10 8.3 10 10 10 C10 8.68 10 7.36 10 6 C8.35 6 6.7 6 5 6 C5 4.35 5 2.7 5 1 C3.68 1 2.36 1 1 1 Z " fill="#E0E2FF" transform="translate(50,30)"/>
<path d="M0 0 C5.61 0 11.22 0 17 0 C17 1.65 17 3.3 17 5 C11.39 5 5.78 5 0 5 C0 3.35 0 1.7 0 0 Z " fill="#5E6AFF" transform="translate(57,79)"/>
<path d="M0 0 C1.299375 1.4540625 1.299375 1.4540625 2.625 2.9375 C7.85472851 7.53922798 14.35685243 6.98157241 21 7 C21 5.02 21 3.04 21 1 C24.52461457 6.28692185 24 7.96647011 24 15 C17.4 15 10.8 15 4 15 C3.83723958 12.49348958 3.67447917 9.98697917 3.51171875 7.48046875 C2.92877555 4.65475171 2.10016288 3.87494434 0 2 C0 1.34 0 0.68 0 0 Z M5 8 C5 9.65 5 11.3 5 13 C6.21428988 14.44388571 6.21428988 14.44388571 9.81640625 14.09765625 C11.39846682 14.09098089 12.98051159 14.07901875 14.5625 14.0625 C15.77196289 14.05573242 15.77196289 14.05573242 17.00585938 14.04882812 C19.00393756 14.03700518 21.00197783 14.01906914 23 14 C23 12.02 23 10.04 23 8 C17.06 8 11.12 8 5 8 Z " fill="#F0F1FF" transform="translate(27,71)"/>
<path d="M0 0 C0.99 0.33 1.98 0.66 3 1 C0.25414212 3.77496433 -2.4973949 6.54422967 -5.25 9.3125 C-6.02730469 10.09818359 -6.80460937 10.88386719 -7.60546875 11.69335938 C-8.35957031 12.45068359 -9.11367188 13.20800781 -9.890625 13.98828125 C-10.92751465 15.03302612 -10.92751465 15.03302612 -11.98535156 16.09887695 C-13.91357537 17.9184454 -15.77928277 19.55031717 -18 21 C-20.25 20.6875 -20.25 20.6875 -22 20 C-21.18273438 19.51015625 -20.36546875 19.0203125 -19.5234375 18.515625 C-15.01783371 15.51188914 -11.39357301 11.60716514 -7.625 7.75 C-6.88894531 7.00492188 -6.15289062 6.25984375 -5.39453125 5.4921875 C-3.59169953 3.66594238 -1.79373022 1.83517795 0 0 Z " fill="#D9DCFF" transform="translate(73,42)"/>
<path d="M0 0 C0.94746094 0.54398438 1.89492188 1.08796875 2.87109375 1.6484375 C3.82113281 2.17695312 4.77117188 2.70546875 5.75 3.25 C8.33574494 5.0422568 9.83658646 6.25082103 11.30859375 9.0234375 C11.40830803 12.78109131 10.79895019 16.27889739 10.30859375 20.0234375 C5.68859375 20.0234375 1.06859375 20.0234375 -3.69140625 20.0234375 C-3.69140625 19.6934375 -3.69140625 19.3634375 -3.69140625 19.0234375 C0.59859375 19.0234375 4.88859375 19.0234375 9.30859375 19.0234375 C9.20546875 17.4353125 9.10234375 15.8471875 8.99609375 14.2109375 C8.93808594 13.31761719 8.88007812 12.42429687 8.8203125 11.50390625 C8.23320906 8.65802316 7.56850295 7.78595042 5.30859375 6.0234375 C1.42846927 3.86781279 -2.45569088 2.33449226 -6.69140625 1.0234375 C-3.99942227 -0.87304294 -3.16901274 -1.14985948 0 0 Z " fill="#CDD1FF" transform="translate(37.69140625,57.9765625)"/>
<path d="M0 0 C2.5 0.125 2.5 0.125 3.5 1.125 C3.6875 4.0625 3.6875 4.0625 3.5 7.125 C2.84 7.785 2.18 8.445 1.5 9.125 C-2.03571429 8.58928571 -2.03571429 8.58928571 -3.5 7.125 C-3.625 4.125 -3.625 4.125 -3.5 1.125 C-2.5 0.125 -2.5 0.125 0 0 Z " fill="#5F6AFF" transform="translate(98.5,2.875)"/>
<path d="M0 0 C0 0.33 0 0.66 0 1 C-0.99580078 1.11214844 -0.99580078 1.11214844 -2.01171875 1.2265625 C-8.16842277 2.0871441 -8.16842277 2.0871441 -13.0625 5.625 C-15.40092851 9.6983916 -15.75957796 12.35184056 -16 17 C-16.33 17 -16.66 17 -17 17 C-18.45805207 9.95274831 -18.45805207 9.95274831 -16.4375 5.75 C-11.02412397 -0.3573986 -7.77266119 -1.6081368 0 0 Z " fill="#D1D5FF" transform="translate(45,18)"/>
<path d="M0 0 C1.5216893 2.91544897 2.72661921 5.85775151 3.875 8.9375 C5.41568145 12.85870804 7.09353291 15.88592811 10 19 C9.01 19 8.02 19 7 19 C2.91706129 14.91706129 0.27144422 10.6806728 -1 5 C-0.6875 2 -0.6875 2 0 0 Z " fill="#DFE1FF" transform="translate(18,52)"/>
<path d="M0 0 C0.99 0.33 1.98 0.66 3 1 C-0.3 4.3 -3.6 7.6 -7 11 C-7.33 10.01 -7.66 9.02 -8 8 C-5.36 5.36 -2.72 2.72 0 0 Z " fill="#CFD3FF" transform="translate(73,42)"/>
<path d="M0 0 C0.33 0.66 0.66 1.32 1 2 C5.62 2 10.24 2 15 2 C15 2.33 15 2.66 15 3 C7.08 3.495 7.08 3.495 -1 4 C-1 5.65 -1 7.3 -1 9 C-2.4606285 6.35261084 -3 5.10551666 -3 2 C-2.34 2 -1.68 2 -1 2 C-0.67 1.34 -0.34 0.68 0 0 Z " fill="#C7CAFF" transform="translate(58,75)"/>
<path d="M0 0 C1.64826111 2.96687001 2.44271087 5.65626525 3 9 C2.01 9.495 2.01 9.495 1 10 C-0.83691257 6.21812119 -1.15837626 4.05431692 0 0 Z " fill="#D0D3FF" transform="translate(18,52)"/>
</svg>
